<?xml version="1.0"?><svg width="640" height="480" xmlns="http://www.w3.org/2000/svg">
 <title>g key</title>
 <g>
  <title>Layer 1</title>
  <path fill="black" d="m320.443817,349.199677c-21.147552,-1.229187 -42.738892,-14.493561 -55.6521,-29.71759c-14.971344,-17.651245 -21.143829,-41.64978 -19.562744,-61.357758c4.644745,-57.907349 67.617645,-92.133362 90.928619,-117.427719c15.603394,-16.931053 18.874481,-25.184708 22.35968,-33.892525c6.747375,-16.855507 7.83429,-36.60424 -5.542694,-38.078598c-12.771667,-1.407745 -23.279114,18.67733 -27.971985,32.404015c-4.220184,12.346382 -7.025238,24.733521 -4.486176,43.340515c1.140991,8.359604 32.547821,241.708755 33.077545,245.325851c5.289307,36.147095 -15.382568,51.104401 -36.484924,53.764984c-45.569183,5.744965 -60.190857,-40.563599 -39.767151,-58.151123c15.723389,-13.541443 38.598724,-1.915985 37.362915,20.346649c-1.094299,19.718353 -20.428864,20.299194 -25.369202,19.848724c7.583862,13.601501 64.757721,20.707489 55.97879,-40.743622c-1.233612,-8.635254 -30.255463,-227.922073 -30.966705,-232.829071c-5.324127,-36.735374 -6.135437,-65.812775 13.004303,-99.745342c7.065979,-12.526394 18.232819,-20.613354 23.714783,-19.554623c1.204681,0.232651 2.404968,0.674961 3.357758,1.658131c14.681702,15.127739 19.185669,48.674267 17.577148,67.945133c-1.647034,19.731674 -2.565002,40.158386 -22.184814,63.97905c-7.592743,9.218307 -30.762238,29.525681 -44.0466,41.192688c-18.665497,16.39241 -32.20401,30.70961 -39.529297,47.981491c-8.232178,19.411636 -9.625793,43.847305 8.967865,65.529037c10.695648,12.250061 28.441742,20.942352 43.376831,21.127563c41.527527,0.515656 53.654572,-19.954712 54.042084,-43.136749c0.637878,-38.171997 -45.445435,-52.60405 -64.391754,-26.357605c-10.985352,15.218872 -6.156891,31.237152 1.221008,38.858063c2.532379,2.615387 5.361145,4.607666 8.037292,5.718262c0.969849,0.402313 3.251068,1.463287 2.603516,3.016235c-0.538605,1.292114 -1.584778,1.364716 -2.537567,1.250641c-11.947784,-1.432922 -25.177338,-12.85318 -28.430603,-32.496674c-4.740295,-28.630676 20.525146,-62.593613 56.590057,-57.039047c23.611053,3.636337 45.532837,23.952606 43.610168,61.783768c-1.648499,32.423309 -28.528412,57.802887 -68.886047,55.457245z" id="clef"/>
 </g>
</svg>